# xmcd
#
# Track frame offsets:
#	150
#	16045
#	34693
#	51978
#	67450
#	83802
#	102663
#	122404
#	141743
#	159543
#	175106
#	189183
#	207513
#	219985
#	236156
#	249293
#	265717
#	281833
#	295918
#	312327
#	328727
#
# Disc length: 4490 seconds
#
# Revision: 1
# Processed by: cddbd v1.5.2PL0 Copyright (c) Steve Scherf et al.
# Submitted via: audiograbber 1.83.01
#
DISCID=41118815
DTITLE=Various Artist - CDXMAS 1026
DYEAR=2009
DGENRE=Country
TTITLE0=Kellie Pickler - Santa Baby 
TTITLE1=Kenny Chesney - Silver Bells 
TTITLE2=Martina McBride - O Holy Night 
TTITLE3=Darius Rucker - Candy Cane Christmas
TTITLE4=Rodney Carrington - Camouflage and Christmas
TTITLE5=Sugarland - O Come, O Come Emmanuel
TTITLE6=Sugarland - City Of Silver Dreams
TTITLE7=Sugarland - Little Wood Guitar
TTITLE8=Richie McDonald - O Holy Night 
TTITLE9=Lee Greenwood - The Little Drummer Boy
TTITLE10=Cledus T. Judd - Christmas In Rehab
TTITLE11=Diamond Rio - Have Yourself a Merry Little Christmas
TTITLE12=Gwen Sebastian - I Just Need You For Christmas
TTITLE13=Gwen Sebastian - Mary Did You Know
TTITLE14=Gwen Sebastian - Fruitcake
TTITLE15=The Springs - Are You An Angel
TTITLE16=Jason Wyatt - Jesus Loves You
TTITLE17=Cerrito - All I Want For Christmas Is BEER! 
TTITLE18=Sherwin Linton - Global Warming Christmas 
TTITLE19=Steve Free - Just a Baby Boy
TTITLE20=Mo Kekko - Take Jesus Shopping (That Christmas Song)
EXTD=
EXTT0=
EXTT1=
EXTT2=
EXTT3=
EXTT4=
EXTT5=
EXTT6=
EXTT7=
EXTT8=
EXTT9=
EXTT10=
EXTT11=
EXTT12=
EXTT13=
EXTT14=
EXTT15=
EXTT16=
EXTT17=
EXTT18=
EXTT19=
EXTT20=
PLAYORDER=
